<svg width="24" height="24" viewBox="0 0 24 24" fill="none" xmlns="http://www.w3.org/2000/svg">
<path d="M12 0C15.7275 0 17.5914 0.00041126 19.0615 0.609375C21.0216 1.42132 22.5787 2.97841 23.3906 4.93848C23.9996 6.40865 24 8.27247 24 12C24 15.7275 23.9996 17.5914 23.3906 19.0615C22.5787 21.0216 21.0216 22.5787 19.0615 23.3906C17.5914 23.9996 15.7275 24 12 24C8.27247 24 6.40865 23.9996 4.93848 23.3906C2.97841 22.5787 1.42132 21.0216 0.609375 19.0615C0.00041126 17.5914 0 15.7275 0 12C0 8.27247 0.00041126 6.40865 0.609375 4.93848C1.42132 2.97841 2.97841 1.42132 4.93848 0.609375C6.40865 0.00041126 8.27247 0 12 0ZM12 5C8.70017 5 7.05052 5.00026 6.02539 6.02539C5.00026 7.05052 5 8.70017 5 12C5 15.2998 5.00026 16.9495 6.02539 17.9746C7.05052 18.9997 8.70017 19 12 19C15.2998 19 16.9495 18.9997 17.9746 17.9746C18.9997 16.9495 19 15.2998 19 12C19 8.70017 18.9997 7.05052 17.9746 6.02539C16.9495 5.00026 15.2998 5 12 5Z" fill="#006C7D"/>
</svg>
